<?xml version="1.0" encoding="UTF-8" standalone="no"?>
<!DOCTYPE svg PUBLIC "-//W3C//DTD SVG 1.1//EN"
 "http://www.w3.org/Graphics/SVG/1.1/DTD/svg11.dtd">
<!-- Generated by graphviz version 7.1.0 (0)
 -->
<!-- Title: snakemake_dag Pages: 1 -->
<svg width="109pt" height="332pt"
 viewBox="0.00 0.00 109.00 332.00" xmlns="http://www.w3.org/2000/svg" xmlns:xlink="http://www.w3.org/1999/xlink">
<g id="graph0" class="graph" transform="scale(1 1) rotate(0) translate(4 328)">
<title>snakemake_dag</title>
<polygon fill="white" stroke="none" points="-4,4 -4,-328 105,-328 105,4 -4,4"/>
<!-- 0 -->
<g id="node1" class="node">
<title>0</title>
<path fill="none" stroke="#d89556" stroke-width="2" d="M81.5,-36C81.5,-36 19.5,-36 19.5,-36 13.5,-36 7.5,-30 7.5,-24 7.5,-24 7.5,-12 7.5,-12 7.5,-6 13.5,0 19.5,0 19.5,0 81.5,0 81.5,0 87.5,0 93.5,-6 93.5,-12 93.5,-12 93.5,-24 93.5,-24 93.5,-30 87.5,-36 81.5,-36"/>
<text text-anchor="middle" x="50.5" y="-15.5" font-family="sans" font-size="10.00">run_multispam</text>
</g>
<!-- 1 -->
<g id="node2" class="node">
<title>1</title>
<path fill="none" stroke="#d6d856" stroke-width="2" d="M89,-108C89,-108 12,-108 12,-108 6,-108 0,-102 0,-96 0,-96 0,-84 0,-84 0,-78 6,-72 12,-72 12,-72 89,-72 89,-72 95,-72 101,-78 101,-84 101,-84 101,-96 101,-96 101,-102 95,-108 89,-108"/>
<text text-anchor="middle" x="50.5" y="-87.5" font-family="sans" font-size="10.00">separate_proteins</text>
</g>
<!-- 1&#45;&gt;0 -->
<g id="edge1" class="edge">
<title>1&#45;&gt;0</title>
<path fill="none" stroke="grey" stroke-width="2" d="M50.5,-71.34C50.5,-64.75 50.5,-57.08 50.5,-49.67"/>
<polygon fill="grey" stroke="grey" stroke-width="2" points="54,-49.93 50.5,-39.93 47,-49.93 54,-49.93"/>
</g>
<!-- 2 -->
<g id="node3" class="node">
<title>2</title>
<path fill="none" stroke="#569ad8" stroke-width="2" d="M82,-180C82,-180 19,-180 19,-180 13,-180 7,-174 7,-168 7,-168 7,-156 7,-156 7,-150 13,-144 19,-144 19,-144 82,-144 82,-144 88,-144 94,-150 94,-156 94,-156 94,-168 94,-168 94,-174 88,-180 82,-180"/>
<text text-anchor="middle" x="50.5" y="-159.5" font-family="sans" font-size="10.00">select_proteins</text>
</g>
<!-- 2&#45;&gt;1 -->
<g id="edge2" class="edge">
<title>2&#45;&gt;1</title>
<path fill="none" stroke="grey" stroke-width="2" d="M50.5,-143.34C50.5,-136.75 50.5,-129.08 50.5,-121.67"/>
<polygon fill="grey" stroke="grey" stroke-width="2" points="54,-121.93 50.5,-111.93 47,-121.93 54,-121.93"/>
</g>
<!-- 3 -->
<g id="node4" class="node">
<title>3</title>
<path fill="none" stroke="#56d8d8" stroke-width="2" d="M69.5,-252C69.5,-252 31.5,-252 31.5,-252 25.5,-252 19.5,-246 19.5,-240 19.5,-240 19.5,-228 19.5,-228 19.5,-222 25.5,-216 31.5,-216 31.5,-216 69.5,-216 69.5,-216 75.5,-216 81.5,-222 81.5,-228 81.5,-228 81.5,-240 81.5,-240 81.5,-246 75.5,-252 69.5,-252"/>
<text text-anchor="middle" x="50.5" y="-231.5" font-family="sans" font-size="10.00">clustering</text>
</g>
<!-- 3&#45;&gt;2 -->
<g id="edge3" class="edge">
<title>3&#45;&gt;2</title>
<path fill="none" stroke="grey" stroke-width="2" d="M50.5,-215.34C50.5,-208.75 50.5,-201.08 50.5,-193.67"/>
<polygon fill="grey" stroke="grey" stroke-width="2" points="54,-193.93 50.5,-183.93 47,-193.93 54,-193.93"/>
</g>
<!-- 4 -->
<g id="node5" class="node">
<title>4</title>
<path fill="none" stroke="#d85656" stroke-width="2" stroke-dasharray="5,2" d="M77,-324C77,-324 24,-324 24,-324 18,-324 12,-318 12,-312 12,-312 12,-300 12,-300 12,-294 18,-288 24,-288 24,-288 77,-288 77,-288 83,-288 89,-294 89,-300 89,-300 89,-312 89,-312 89,-318 83,-324 77,-324"/>
<text text-anchor="middle" x="50.5" y="-303.5" font-family="sans" font-size="10.00">merge_input</text>
</g>
<!-- 4&#45;&gt;3 -->
<g id="edge4" class="edge">
<title>4&#45;&gt;3</title>
<path fill="none" stroke="grey" stroke-width="2" d="M50.5,-287.34C50.5,-280.75 50.5,-273.08 50.5,-265.67"/>
<polygon fill="grey" stroke="grey" stroke-width="2" points="54,-265.93 50.5,-255.93 47,-265.93 54,-265.93"/>
</g>
</g>
</svg>
